# xmcd
#
# Track frame offsets:
#	150
#	16207
#	30722
#	48465
#	59750
#	73960
#	89052
#	104332
#	118552
#	135360
#	151392
#	165025
#
# Disc length: 2356 seconds
#
# Revision: 1
# Processed by: cddbd v1.5.2PL0 Copyright (c) Steve Scherf et al.
# Submitted via: audiograbber 1.82.01
#
DISCID=9e09320c
DTITLE=Rednecks - Frei wie der Wind
DYEAR=1900
DGENRE=Country
TTITLE0=Frei wie der Wind
TTITLE1=San Bernadino
TTITLE2=Liebe ist nur ein Wort
TTITLE3=Feierabend
TTITLE4=Für Di tat i all´s
TTITLE5=Hobos
TTITLE6=In der Vorstadt
TTITLE7=Wo sind die Zeiten
TTITLE8=Sing mit
TTITLE9=Gemeinsam
TTITLE10=Wir sind Musiker
TTITLE11=Bleib da bei mir
EXTD=
EXTT0=
EXTT1=
EXTT2=
EXTT3=
EXTT4=
EXTT5=
EXTT6=
EXTT7=
EXTT8=
EXTT9=
EXTT10=
EXTT11=
PLAYORDER=
